<?xml version="1.0" standalone="no"?>
<!DOCTYPE svg PUBLIC "-//W3C//DTD SVG 20010904//EN"
 "http://www.w3.org/TR/2001/REC-SVG-20010904/DTD/svg10.dtd">
<svg version="1.0" xmlns="http://www.w3.org/2000/svg"
 width="400.000000pt" height="400.000000pt" viewBox="0 0 400.000000 400.000000"
 preserveAspectRatio="xMidYMid meet">
<metadata>
Created by potrace 1.15, written by Peter Selinger 2001-2017
</metadata>
<g transform="translate(0.000000,400.000000) scale(0.100000,-0.100000)"
fill="#000000" stroke="none">
<path d="M1790 3989 c-370 -42 -722 -184 -1015 -408 -85 -64 -256 -232 -328
-321 -285 -353 -447 -810 -447 -1260 0 -450 162 -907 447 -1260 72 -89 243
-257 328 -321 351 -269 791 -419 1225 -419 434 0 874 150 1225 419 85 64 256
232 328 321 285 353 447 810 447 1260 0 450 -162 907 -447 1260 -72 89 -243
257 -328 321 -357 273 -800 422 -1240 418 -66 -1 -154 -5 -195 -10z m469 -929
c402 -106 696 -400 802 -806 20 -76 24 -113 24 -254 0 -141 -4 -178 -24 -254
-107 -408 -399 -700 -807 -807 -76 -20 -113 -24 -254 -24 -141 0 -178 4 -254
24 -408 107 -700 399 -807 807 -20 76 -24 113 -24 254 0 141 4 178 24 254 113
432 440 739 874 822 108 20 338 12 446 -16z"/>
<path d="M1590 2009 c-129 -336 -236 -615 -238 -620 -2 -5 74 -9 170 -9 l173
0 40 103 41 102 223 0 223 0 37 -100 38 -100 173 -3 c161 -2 172 -1 167 15 -4
17 -360 965 -427 1141 l-32 82 -176 0 -177 0 -235 -611z m474 34 c32 -98 61
-184 63 -190 4 -10 -25 -13 -127 -13 -102 0 -131 3 -127 13 2 6 31 92 63 190
32 97 61 177 64 177 3 0 32 -80 64 -177z"/>
</g>
</svg>
